<svg enable-background="new 0 0 24 24" height="512" viewBox="0 0 24 24" width="512" xmlns="http://www.w3.org/2000/svg"><path d="m21.25 0h-18.5c-1.517 0-2.75 1.233-2.75 2.75v18.5c0 1.517 1.233 2.75 2.75 2.75h18.5c1.517 0 2.75-1.233 2.75-2.75v-18.5c0-1.517-1.233-2.75-2.75-2.75z" fill="#f44336"/><path d="m8.288 16.463c-.192 0-.384-.073-.53-.22-.293-.293-.293-.768 0-1.061l7.424-7.425c.293-.293.768-.293 1.061 0s.293.768 0 1.061l-7.424 7.425c-.147.147-.339.22-.531.22z"/><path d="m15.712 16.463c-.192 0-.384-.073-.53-.22l-7.424-7.425c-.293-.293-.293-.768 0-1.061s.768-.293 1.061 0l7.424 7.425c.293.293.293.768 0 1.061-.147.147-.339.22-.531.22z"/><path d="m21.25 24h-18.5c-1.517 0-2.75-1.233-2.75-2.75v-18.5c0-1.517 1.233-2.75 2.75-2.75h18.5c1.517 0 2.75 1.233 2.75 2.75v18.5c0 1.517-1.233 2.75-2.75 2.75zm-18.5-22.5c-.689 0-1.25.561-1.25 1.25v18.5c0 .689.561 1.25 1.25 1.25h18.5c.689 0 1.25-.561 1.25-1.25v-18.5c0-.689-.561-1.25-1.25-1.25z"/></svg>